<svg
    xmlns="http://www.w3.org/2000/svg"
    viewBox="0 0 24 24"
    width="48"
    height="48"
    fill="currentColor"
>
    <path
        fill-rule="evenodd"
        clip-rule="evenodd"
        d="M12 0C5.373 0 0 5.373 0 12c0 5.304 3.438 9.801 8.207 11.387.6.111.793-.26.793-.578 0-.285-.01-1.039-.015-2.037-3.338.725-4.043-1.605-4.043-1.605-.546-1.38-1.333-1.749-1.333-1.749-1.091-.746.083-.731.083-.731 1.205.085 1.838 1.238 1.838 1.238 1.07 1.83 2.809 1.299 3.491.993.108-.774.419-1.299.764-1.598-2.665-.303-5.467-1.333-5.467-5.933 0-1.312.465-2.38 1.235-3.22-.124-.303-.535-1.53.117-3.19 0 0 1.008-.322 3.303 1.227.957-.266 1.986-.398 3.007-.404 1.021.006 2.05.138 3.007.404 2.295-1.549 3.303-1.227 3.303-1.227.653 1.66.241 2.887.118 3.19.77.84 1.235 1.908 1.235 3.22 0 4.608-2.81 5.63-5.48 5.93.431.37.816 1.098.816 2.21 0 1.594-.014 2.872-.014 3.259 0 .319.191.694.797.578C20.565 21.801 24 17.304 24 12c0-6.627-5.373-12-12-12z"
    />
</svg>
